<?xml version="1.0" encoding="UTF-8" standalone="no"?><!-- Generator: Gravit.io --><svg xmlns="http://www.w3.org/2000/svg" xmlns:xlink="http://www.w3.org/1999/xlink" style="isolation:isolate" viewBox="0 0 100 100" width="100pt" height="100pt"><defs><clipPath id="_clipPath_KRXlyBKawxeFCLWN8yEzris3V87tsra8"><rect width="100" height="100"/></clipPath></defs><g clip-path="url(#_clipPath_KRXlyBKawxeFCLWN8yEzris3V87tsra8)"><rect width="100" height="100" style="fill:rgb(0,0,0)" fill-opacity="0"/><path d=" M 20 0 L 0 20 L 0 80 L 20 100 L 80 100 L 100 80 L 100 20 L 80 0 L 20 0 Z " fill="rgb(241,241,241)"/><g><linearGradient id="_lgradient_0" x1="0.9140723640570767" y1="0.049495854896496605" x2="-0.11852091056665381" y2="1.0821007877555593" gradientTransform="matrix(25.142,0,0,48.713,27.564,25.626)" gradientUnits="userSpaceOnUse"><stop offset="0%" stop-opacity="1" style="stop-color:rgb(0,160,255)"/><stop offset="0.6569999%" stop-opacity="1" style="stop-color:rgb(0,161,255)"/><stop offset="26.009999999999998%" stop-opacity="1" style="stop-color:rgb(0,190,255)"/><stop offset="51.22%" stop-opacity="1" style="stop-color:rgb(0,210,255)"/><stop offset="76.03999999999999%" stop-opacity="1" style="stop-color:rgb(0,223,255)"/><stop offset="100%" stop-opacity="1" style="stop-color:rgb(0,227,255)"/></linearGradient><path d=" M 28.451 25.757 C 27.889 26.363 27.564 27.289 27.564 28.501 L 27.564 71.489 C 27.564 72.701 27.889 73.627 28.47 74.209 L 28.621 74.34 L 52.706 50.254 L 52.706 49.716 L 28.601 25.626 C 28.601 25.626 28.451 25.757 28.451 25.757 Z " fill-rule="evenodd" fill="url(#_lgradient_0)"/><linearGradient id="_lgradient_1" x1="1.0763045056765845" y1="0.5000043148688018" x2="-1.3055170579932502" y2="0.5000043148688015" gradientTransform="matrix(19.75,0,0,16.629,52.686,41.678)" gradientUnits="userSpaceOnUse"><stop offset="0%" stop-opacity="1" style="stop-color:rgb(255,224,0)"/><stop offset="40.87%" stop-opacity="1" style="stop-color:rgb(255,189,0)"/><stop offset="77.53999999999999%" stop-opacity="1" style="stop-color:rgb(255,165,0)"/><stop offset="100%" stop-opacity="1" style="stop-color:rgb(255,156,0)"/></linearGradient><path d=" M 60.72 58.307 L 52.686 50.274 L 52.686 49.712 L 60.72 41.678 L 60.894 41.785 L 70.396 47.186 C 73.116 48.718 73.116 51.248 70.396 52.8 L 60.894 58.2 C 60.894 58.2 60.72 58.307 60.72 58.307 Z " fill-rule="evenodd" fill="url(#_lgradient_1)"/><linearGradient id="_lgradient_2" x1="0.8624347399880391" y1="0.17859596795582355" x2="-0.5012923789599554" y2="1.5423085165212715" gradientTransform="matrix(32.443,0,0,25.007,28.451,49.993)" gradientUnits="userSpaceOnUse"><stop offset="0%" stop-opacity="1" style="stop-color:rgb(255,58,68)"/><stop offset="100%" stop-opacity="1" style="stop-color:rgb(195,17,98)"/></linearGradient><path d=" M 60.894 58.2 L 52.686 49.993 L 28.451 74.228 C 29.338 75.178 30.827 75.285 32.489 74.359 L 60.894 58.2 Z " fill-rule="evenodd" fill="url(#_lgradient_2)"/><linearGradient id="_lgradient_3" x1="-0.18810562761506538" y1="-0.5418047296352505" x2="0.4208485355648531" y2="0.06716015567556877" gradientTransform="matrix(32.443,0,0,24.993,28.451,25)" gradientUnits="userSpaceOnUse"><stop offset="0%" stop-opacity="1" style="stop-color:rgb(50,160,113)"/><stop offset="6.8500000000000005%" stop-opacity="1" style="stop-color:rgb(45,167,113)"/><stop offset="47.620000000000005%" stop-opacity="1" style="stop-color:rgb(21,207,116)"/><stop offset="80.08999999999999%" stop-opacity="1" style="stop-color:rgb(6,231,117)"/><stop offset="100%" stop-opacity="1" style="stop-color:rgb(0,240,118)"/></linearGradient><path d=" M 60.894 41.785 L 32.489 25.651 C 30.827 24.7 29.333 24.831 28.451 25.781 L 52.686 49.993 L 60.894 41.785 Z " fill-rule="evenodd" fill="url(#_lgradient_3)"/></g></g></svg>