<?xml version="1.0" encoding="UTF-8" standalone="no"?><!-- Generator: Gravit.io --><svg xmlns="http://www.w3.org/2000/svg" xmlns:xlink="http://www.w3.org/1999/xlink" style="isolation:isolate" viewBox="0 0 100 100" width="100pt" height="100pt"><defs><clipPath id="_clipPath_xVrlynkMKV8ji2j7QwcgMlCjq4rr391e"><rect width="100" height="100"/></clipPath></defs><g clip-path="url(#_clipPath_xVrlynkMKV8ji2j7QwcgMlCjq4rr391e)"><rect width="100" height="100" style="fill:rgb(0,0,0)" fill-opacity="0"/><path d=" M 20 0 L 0 20 L 0 80 L 20 100 L 80 100 L 100 80 L 100 20 L 80 0 L 20 0 Z " fill="rgb(242,235,220)"/><path d=" M 35.412 64.39 L 35.685 64.39 C 36.926 64.39 38.176 64.39 39.416 64.399 C 39.572 64.399 39.719 64.36 39.768 64.605 C 40.461 68.013 42.698 69.937 45.911 70.846 C 48.538 71.588 51.195 71.607 53.851 71.021 C 57.152 70.299 59.321 68.257 60.493 65.122 C 61.274 63.022 61.538 60.844 61.567 58.627 C 61.577 58.061 61.596 54.037 61.548 53.47 L 61.46 53.441 C 61.382 53.588 61.294 53.724 61.215 53.871 C 59.057 58.08 55.228 60.454 50.921 60.62 C 40.862 61.01 34.376 55.053 34.122 43.411 C 34.074 41.096 34.298 38.83 34.933 36.603 C 36.945 29.659 42.219 25.059 49.964 25 C 55.951 24.961 59.877 28.78 61.313 31.866 C 61.362 31.974 61.44 32.091 61.548 32.052 L 61.548 26.036 L 65.874 26.036 C 65.874 53.412 65.884 58.481 65.884 58.481 C 65.874 66.148 63.276 72.516 55.824 74.322 C 49.036 75.973 40.295 74.791 36.681 68.736 C 35.9 67.417 35.529 65.972 35.412 64.39 L 35.412 64.39 Z  M 49.7 28.565 C 44.573 28.516 39.104 32.54 38.469 41.633 C 38.068 47.395 39.914 53.568 45.452 56.147 C 48.148 57.406 52.709 57.612 56.029 55.297 C 60.678 52.054 62.153 45.823 61.382 40.256 C 60.434 33.312 56.713 28.536 49.7 28.565 L 49.7 28.565 Z " fill="rgb(70,47,29)"/></g></svg>