<?xml version="1.0" encoding="UTF-8" standalone="no"?><!-- Generator: Gravit.io --><svg xmlns="http://www.w3.org/2000/svg" xmlns:xlink="http://www.w3.org/1999/xlink" style="isolation:isolate" viewBox="0 0 100 100" width="100pt" height="100pt"><defs><clipPath id="_clipPath_u4C8SsHRoGQvnVQAzujaWvpeGfvixVM8"><rect width="100" height="100"/></clipPath></defs><g clip-path="url(#_clipPath_u4C8SsHRoGQvnVQAzujaWvpeGfvixVM8)"><rect width="100" height="100" style="fill:rgb(0,0,0)" fill-opacity="0"/><path d=" M 20 0 L 0 20 L 0 80 L 20 100 L 80 100 L 100 80 L 100 20 L 80 0 L 20 0 Z " fill="rgb(36,41,46)"/><path d=" M 41.512 65.26 C 41.512 65.467 41.274 65.632 40.974 65.632 C 40.633 65.663 40.395 65.498 40.395 65.26 C 40.395 65.053 40.633 64.888 40.933 64.888 C 41.243 64.857 41.512 65.022 41.512 65.26 Z  M 38.296 64.795 C 38.224 65.001 38.431 65.239 38.741 65.301 C 39.01 65.405 39.32 65.301 39.382 65.095 C 39.444 64.888 39.247 64.65 38.937 64.557 C 38.668 64.485 38.369 64.588 38.296 64.795 Z  M 42.866 64.619 C 42.566 64.691 42.36 64.888 42.391 65.126 C 42.422 65.332 42.69 65.467 43.001 65.394 C 43.3 65.322 43.507 65.126 43.476 64.919 C 43.445 64.722 43.166 64.588 42.866 64.619 Z  M 49.669 25 C 35.329 25 24.359 35.887 24.359 50.227 C 24.359 61.693 31.576 71.505 41.884 74.958 C 43.207 75.196 43.673 74.379 43.673 73.707 C 43.673 73.066 43.642 69.53 43.642 67.359 C 43.642 67.359 36.404 68.91 34.884 64.278 C 34.884 64.278 33.706 61.269 32.01 60.494 C 32.01 60.494 29.643 58.87 32.176 58.901 C 32.176 58.901 34.75 59.108 36.166 61.569 C 38.431 65.56 42.225 64.412 43.704 63.73 C 43.941 62.076 44.613 60.928 45.358 60.246 C 39.578 59.605 33.747 58.767 33.747 48.821 C 33.747 45.978 34.533 44.551 36.187 42.731 C 35.918 42.059 35.04 39.288 36.456 35.711 C 38.617 35.039 43.59 38.503 43.59 38.503 C 45.658 37.924 47.881 37.624 50.083 37.624 C 52.285 37.624 54.508 37.924 56.576 38.503 C 56.576 38.503 61.549 35.029 63.709 35.711 C 65.126 39.299 64.247 42.059 63.978 42.731 C 65.633 44.561 66.646 45.988 66.646 48.821 C 66.646 58.798 60.556 59.594 54.777 60.246 C 55.728 61.062 56.534 62.613 56.534 65.043 C 56.534 68.527 56.503 72.838 56.503 73.686 C 56.503 74.358 56.979 75.175 58.292 74.937 C 68.631 71.505 75.641 61.693 75.641 50.227 C 75.641 35.887 64.009 25 49.669 25 Z  M 34.409 60.659 C 34.274 60.762 34.305 61 34.481 61.197 C 34.647 61.362 34.884 61.435 35.019 61.3 C 35.153 61.197 35.122 60.959 34.946 60.762 C 34.781 60.597 34.543 60.525 34.409 60.659 Z  M 33.292 59.822 C 33.22 59.956 33.323 60.121 33.53 60.225 C 33.695 60.328 33.902 60.297 33.975 60.152 C 34.047 60.018 33.944 59.853 33.737 59.749 C 33.53 59.687 33.365 59.718 33.292 59.822 Z  M 36.642 63.502 C 36.477 63.637 36.539 63.947 36.776 64.143 C 37.014 64.381 37.314 64.412 37.448 64.247 C 37.583 64.112 37.521 63.802 37.314 63.606 C 37.087 63.368 36.776 63.337 36.642 63.502 Z  M 35.463 61.982 C 35.298 62.086 35.298 62.355 35.463 62.592 C 35.629 62.83 35.908 62.934 36.042 62.83 C 36.208 62.696 36.208 62.427 36.042 62.189 C 35.898 61.951 35.629 61.848 35.463 61.982 Z " fill="rgb(255,255,255)"/></g></svg>