<?xml version="1.0" encoding="UTF-8" standalone="no"?><!-- Generator: Gravit.io --><svg xmlns="http://www.w3.org/2000/svg" xmlns:xlink="http://www.w3.org/1999/xlink" style="isolation:isolate" viewBox="0 0 32 32" width="32pt" height="32pt"><defs><clipPath id="_clipPath_tGQvEht6Ghda85x7siGKMrr1sI9snvNq"><rect width="32" height="32"/></clipPath></defs><g clip-path="url(#_clipPath_tGQvEht6Ghda85x7siGKMrr1sI9snvNq)"><rect width="32" height="32" style="fill:rgb(0,0,0)" fill-opacity="0"/><path d=" M 32 6.4 L 25.6 0 L 6.4 0 L 0 6.4 L 0 25.6 L 6.4 32 L 25.6 32 L 32 25.6 L 32 6.4 Z " fill-rule="evenodd" fill="rgb(255,179,0)"/><path d=" M 30 7.6 L 24.4 2 L 7.6 2 L 2 7.6 L 2 24.4 L 7.6 30 L 24.4 30 L 30 24.4 L 30 7.6 Z " fill-rule="evenodd" fill="rgb(48,48,48)"/><path d=" M 12.69 21.951 C 12.69 22.032 12.597 22.097 12.48 22.097 C 12.347 22.109 12.254 22.044 12.254 21.951 C 12.254 21.871 12.347 21.806 12.464 21.806 C 12.585 21.794 12.69 21.859 12.69 21.951 Z  M 11.435 21.77 C 11.407 21.851 11.488 21.943 11.609 21.968 C 11.714 22.008 11.835 21.968 11.859 21.887 C 11.883 21.806 11.806 21.714 11.685 21.677 C 11.581 21.649 11.464 21.689 11.435 21.77 Z  M 13.218 21.701 C 13.101 21.73 13.02 21.806 13.032 21.899 C 13.044 21.98 13.149 22.032 13.27 22.004 C 13.387 21.976 13.468 21.899 13.456 21.818 C 13.444 21.742 13.335 21.689 13.218 21.701 Z  M 15.871 6.25 C 10.278 6.25 6 10.496 6 16.089 C 6 20.56 8.815 24.387 12.835 25.734 C 13.351 25.826 13.532 25.508 13.532 25.246 C 13.532 24.996 13.52 23.617 13.52 22.77 C 13.52 22.77 10.698 23.375 10.105 21.568 C 10.105 21.568 9.645 20.395 8.984 20.093 C 8.984 20.093 8.06 19.46 9.048 19.472 C 9.048 19.472 10.052 19.552 10.605 20.512 C 11.488 22.068 12.968 21.621 13.544 21.355 C 13.637 20.71 13.899 20.262 14.19 19.996 C 11.935 19.746 9.661 19.419 9.661 15.54 C 9.661 14.431 9.968 13.875 10.613 13.165 C 10.508 12.903 10.165 11.822 10.718 10.427 C 11.56 10.165 13.5 11.516 13.5 11.516 C 14.306 11.29 15.173 11.173 16.032 11.173 C 16.891 11.173 17.758 11.29 18.565 11.516 C 18.565 11.516 20.504 10.161 21.347 10.427 C 21.899 11.826 21.556 12.903 21.452 13.165 C 22.097 13.879 22.492 14.435 22.492 15.54 C 22.492 19.431 20.117 19.742 17.863 19.996 C 18.234 20.314 18.548 20.919 18.548 21.867 C 18.548 23.226 18.536 24.907 18.536 25.238 C 18.536 25.5 18.722 25.818 19.234 25.726 C 23.266 24.387 26 20.56 26 16.089 C 26 10.496 21.464 6.25 15.871 6.25 Z  M 9.919 20.157 C 9.867 20.197 9.879 20.29 9.948 20.367 C 10.012 20.431 10.105 20.46 10.157 20.407 C 10.21 20.367 10.198 20.274 10.129 20.197 C 10.065 20.133 9.972 20.105 9.919 20.157 Z  M 9.484 19.83 C 9.456 19.883 9.496 19.947 9.577 19.988 C 9.641 20.028 9.722 20.016 9.75 19.96 C 9.778 19.907 9.738 19.843 9.657 19.802 C 9.577 19.778 9.512 19.79 9.484 19.83 Z  M 10.79 21.266 C 10.726 21.318 10.75 21.439 10.843 21.516 C 10.935 21.609 11.052 21.621 11.105 21.556 C 11.157 21.504 11.133 21.383 11.052 21.306 C 10.964 21.214 10.843 21.201 10.79 21.266 Z  M 10.331 20.673 C 10.266 20.714 10.266 20.818 10.331 20.911 C 10.395 21.004 10.504 21.044 10.556 21.004 C 10.621 20.951 10.621 20.847 10.556 20.754 C 10.5 20.661 10.395 20.621 10.331 20.673 Z " fill="rgb(255,255,255)"/></g></svg>