<?xml version="1.0" encoding="UTF-8" standalone="no"?><!-- Generator: Gravit.io --><svg xmlns="http://www.w3.org/2000/svg" xmlns:xlink="http://www.w3.org/1999/xlink" style="isolation:isolate" viewBox="0 0 32 32" width="32pt" height="32pt"><defs><clipPath id="_clipPath_uFA0HFQEFR388uTmiBjqaECTw0XYluQG"><rect width="32" height="32"/></clipPath></defs><g clip-path="url(#_clipPath_uFA0HFQEFR388uTmiBjqaECTw0XYluQG)"><rect width="32" height="32" style="fill:rgb(0,0,0)" fill-opacity="0"/><path d=" M 32 6.4 L 25.6 0 L 6.4 0 L 0 6.4 L 0 25.6 L 6.4 32 L 25.6 32 L 32 25.6 L 32 6.4 Z " fill-rule="evenodd" fill="rgb(255,179,0)"/><path d=" M 30 7.6 L 24.4 2 L 7.6 2 L 2 7.6 L 2 24.4 L 7.6 30 L 24.4 30 L 30 24.4 L 30 7.6 Z " fill-rule="evenodd" fill="rgb(48,48,48)"/><path d=" M 10.165 21.756 L 10.274 21.756 C 10.77 21.756 11.27 21.756 11.766 21.76 C 11.829 21.76 11.888 21.744 11.907 21.842 C 12.184 23.205 13.079 23.975 14.364 24.338 C 15.415 24.635 16.478 24.643 17.541 24.409 C 18.861 24.119 19.728 23.303 20.197 22.049 C 20.51 21.209 20.615 20.338 20.627 19.451 C 20.631 19.224 20.639 17.615 20.619 17.388 L 20.584 17.376 C 20.553 17.435 20.517 17.49 20.486 17.548 C 19.623 19.232 18.091 20.181 16.369 20.248 C 12.345 20.404 9.751 18.021 9.649 13.364 C 9.629 12.438 9.719 11.532 9.973 10.641 C 10.778 7.864 12.888 6.024 15.986 6 C 18.38 5.984 19.951 7.512 20.525 8.747 C 20.545 8.79 20.576 8.836 20.619 8.821 L 20.619 6.414 L 22.35 6.414 C 22.35 17.365 22.354 19.392 22.354 19.392 C 22.35 22.459 21.311 25.006 18.33 25.729 C 15.615 26.389 12.118 25.917 10.673 23.494 C 10.36 22.967 10.212 22.389 10.165 21.756 L 10.165 21.756 Z  M 15.88 7.426 C 13.829 7.407 11.641 9.016 11.387 12.653 C 11.227 14.958 11.966 17.427 14.181 18.459 C 15.259 18.963 17.083 19.045 18.412 18.119 C 20.271 16.822 20.861 14.329 20.553 12.102 C 20.174 9.325 18.685 7.414 15.88 7.426 L 15.88 7.426 Z " fill="rgb(255,255,255)"/></g></svg>