<?xml version="1.0" encoding="UTF-8" standalone="no"?><!-- Generator: Gravit.io --><svg xmlns="http://www.w3.org/2000/svg" xmlns:xlink="http://www.w3.org/1999/xlink" style="isolation:isolate" viewBox="0 0 100 100" width="100pt" height="100pt"><defs><clipPath id="_clipPath_ADnNPKFWh19wStQuqYgVWYp1fxh9C83Q"><rect width="100" height="100"/></clipPath></defs><g clip-path="url(#_clipPath_ADnNPKFWh19wStQuqYgVWYp1fxh9C83Q)"><rect width="100" height="100" style="fill:rgb(0,0,0)" fill-opacity="0"/><path d=" M 20 0 L 0 20 L 0 80 L 20 100 L 80 100 L 100 80 L 100 20 L 80 0 L 20 0 Z " fill="rgb(255,255,255)"/><g><path d="M 44.025 49.573 L 59.282 49.573 C 60.956 49.573 62.316 50.932 62.316 52.607 L 62.316 52.607 C 62.316 54.281 60.956 55.64 59.282 55.64 L 44.025 55.64 C 42.351 55.64 40.991 54.281 40.991 52.607 L 40.991 52.607 C 40.991 50.932 42.351 49.573 44.025 49.573 Z" style="stroke:none;fill:#000000;stroke-miterlimit:10;"/><path d="M 61.961 52.104 L 72.964 69.712 C 74.016 71.395 73.604 73.552 72.046 74.526 L 72.046 74.526 C 70.487 75.5 68.368 74.924 67.316 73.241 L 56.314 55.633 C 55.262 53.95 55.673 51.793 57.232 50.819 L 57.232 50.819 C 58.791 49.845 60.91 50.421 61.961 52.104 Z" style="stroke:none;fill:#000000;stroke-miterlimit:10;"/><path d="M 29.696 25 L 56.062 25 C 57.852 25 59.304 26.379 59.304 28.077 L 59.304 28.077 C 59.304 29.775 57.852 31.154 56.062 31.154 L 29.696 31.154 C 27.906 31.154 26.453 29.775 26.453 28.077 L 26.453 28.077 C 26.453 26.379 27.906 25 29.696 25 Z" style="stroke:none;fill:#000000;stroke-miterlimit:10;"/><path d="M 57.1 25 L 57.1 25 C 65.142 25 71.672 31.865 71.672 40.32 L 71.672 40.32 C 71.672 48.775 65.142 55.64 57.1 55.64 L 57.1 55.64 C 49.058 55.64 42.528 48.775 42.528 40.32 L 42.528 40.32 C 42.528 31.865 49.058 25 57.1 25 Z" style="stroke:none;fill:#000000;stroke-miterlimit:10;"/><path d="M 35.731 31.154 L 56.328 31.154 C 61.223 31.154 65.197 35.128 65.197 40.023 L 65.197 40.704 C 65.197 45.599 61.223 49.573 56.328 49.573 L 35.731 49.573 C 30.836 49.573 26.862 45.599 26.862 40.704 L 26.862 40.023 C 26.862 35.128 30.836 31.154 35.731 31.154 Z" style="stroke:none;fill:#FFFFFF;stroke-miterlimit:10;"/></g></g></svg>