<?xml version="1.0" encoding="UTF-8" standalone="no"?><!-- Generator: Gravit.io --><svg xmlns="http://www.w3.org/2000/svg" xmlns:xlink="http://www.w3.org/1999/xlink" style="isolation:isolate" viewBox="0 0 32 32" width="32pt" height="32pt"><defs><clipPath id="_clipPath_63yukgJqvvAElkPHRCeq7trNL0uYFnJq"><rect width="32" height="32"/></clipPath></defs><g clip-path="url(#_clipPath_63yukgJqvvAElkPHRCeq7trNL0uYFnJq)"><rect width="32" height="32" style="fill:rgb(0,0,0)" fill-opacity="0"/><path d=" M 32 6.4 L 25.6 0 L 6.4 0 L 0 6.4 L 0 25.6 L 6.4 32 L 25.6 32 L 32 25.6 L 32 6.4 Z " fill-rule="evenodd" fill="rgb(255,179,0)"/><path d=" M 30 7.6 L 24.4 2 L 7.6 2 L 2 7.6 L 2 24.4 L 7.6 30 L 24.4 30 L 30 24.4 L 30 7.6 Z " fill-rule="evenodd" fill="rgb(48,48,48)"/><g><path d="M 13.61 15.829 L 19.713 15.829 C 20.383 15.829 20.926 16.373 20.926 17.043 L 20.926 17.043 C 20.926 17.712 20.383 18.256 19.713 18.256 L 13.61 18.256 C 12.94 18.256 12.397 17.712 12.397 17.043 L 12.397 17.043 C 12.397 16.373 12.94 15.829 13.61 15.829 Z" style="stroke:none;fill:#FFFFFF;stroke-miterlimit:10;"/><path d="M 20.785 16.842 L 25.186 23.885 C 25.606 24.558 25.442 25.421 24.818 25.81 L 24.818 25.81 C 24.195 26.2 23.347 25.97 22.926 25.297 L 18.525 18.253 C 18.105 17.58 18.269 16.717 18.893 16.328 L 18.893 16.328 C 19.516 15.938 20.364 16.168 20.785 16.842 Z" style="stroke:none;fill:#FFFFFF;stroke-miterlimit:10;"/><path d="M 7.878 6 L 18.425 6 C 19.141 6 19.722 6.551 19.722 7.231 L 19.722 7.231 C 19.722 7.91 19.141 8.462 18.425 8.462 L 7.878 8.462 C 7.163 8.462 6.581 7.91 6.581 7.231 L 6.581 7.231 C 6.581 6.551 7.163 6 7.878 6 Z" style="stroke:none;fill:#FFFFFF;stroke-miterlimit:10;"/><path d="M 18.84 6 L 18.84 6 C 22.057 6 24.669 8.746 24.669 12.128 L 24.669 12.128 C 24.669 15.51 22.057 18.256 18.84 18.256 L 18.84 18.256 C 15.623 18.256 13.011 15.51 13.011 12.128 L 13.011 12.128 C 13.011 8.746 15.623 6 18.84 6 Z" style="stroke:none;fill:#FFFFFF;stroke-miterlimit:10;"/><path d="M 10.292 8.462 L 18.531 8.462 C 20.489 8.462 22.079 10.051 22.079 12.009 L 22.079 12.282 C 22.079 14.24 20.489 15.829 18.531 15.829 L 10.292 15.829 C 8.334 15.829 6.745 14.24 6.745 12.282 L 6.745 12.009 C 6.745 10.051 8.334 8.462 10.292 8.462 Z" style="stroke:none;fill:#303030;stroke-miterlimit:10;"/></g></g></svg>