<?xml version="1.0" encoding="UTF-8" standalone="no"?><!-- Generator: Gravit.io --><svg xmlns="http://www.w3.org/2000/svg" xmlns:xlink="http://www.w3.org/1999/xlink" style="isolation:isolate" viewBox="0 0 32 32" width="32pt" height="32pt"><defs><clipPath id="_clipPath_cuT1iOlUE30MWoquNaz16HRA9ubWntWs"><rect width="32" height="32"/></clipPath></defs><g clip-path="url(#_clipPath_cuT1iOlUE30MWoquNaz16HRA9ubWntWs)"><rect width="32" height="32" style="fill:rgb(0,0,0)" fill-opacity="0"/><path d=" M 32 6.4 L 25.6 0 L 6.4 0 L 0 6.4 L 0 25.6 L 6.4 32 L 25.6 32 L 32 25.6 L 32 6.4 Z " fill-rule="evenodd" fill="rgb(255,179,0)"/><path d=" M 30 7.6 L 24.4 2 L 7.6 2 L 2 7.6 L 2 24.4 L 7.6 30 L 24.4 30 L 30 24.4 L 30 7.6 Z " fill-rule="evenodd" fill="rgb(48,48,48)"/><path d=" M 25.582 11.169 C 25.352 10.303 24.674 9.621 23.814 9.389 C 22.254 8.969 16 8.969 16 8.969 C 16 8.969 9.746 8.969 8.186 9.389 C 7.326 9.621 6.648 10.303 6.418 11.169 C 6 12.739 6 16.014 6 16.014 C 6 16.014 6 19.29 6.418 20.859 C 6.648 21.725 7.326 22.379 8.186 22.611 C 9.746 23.031 16 23.031 16 23.031 C 16 23.031 22.254 23.031 23.814 22.611 C 24.674 22.379 25.352 21.725 25.582 20.859 C 26 19.29 26 16.014 26 16.014 C 26 16.014 26 12.739 25.582 11.169 L 25.582 11.169 Z  M 13.955 18.988 L 13.955 13.04 L 19.182 16.014 L 13.955 18.988 L 13.955 18.988 Z " fill="rgb(255,255,255)"/></g></svg>