<?xml version="1.0" encoding="UTF-8" standalone="no"?><!-- Generator: Gravit.io --><svg xmlns="http://www.w3.org/2000/svg" xmlns:xlink="http://www.w3.org/1999/xlink" style="isolation:isolate" viewBox="0 0 100 100" width="100pt" height="100pt"><defs><clipPath id="_clipPath_sjcBcEW4rd6DeWHNaEWXPeHdfUBmHa8b"><rect width="100" height="100"/></clipPath></defs><g clip-path="url(#_clipPath_sjcBcEW4rd6DeWHNaEWXPeHdfUBmHa8b)"><rect width="100" height="100" style="fill:rgb(0,0,0)" fill-opacity="0"/><path d=" M 20 0 L 0 20 L 0 80 L 20 100 L 80 100 L 100 80 L 100 20 L 80 0 L 20 0 Z " fill="rgb(255,255,255)"/><path d=" M 84.07 32.823 C 83.252 29.744 80.842 27.319 77.783 26.496 C 72.237 25 50 25 50 25 C 50 25 27.763 25 22.217 26.496 C 19.158 27.319 16.748 29.744 15.93 32.823 C 14.444 38.405 14.444 50.051 14.444 50.051 C 14.444 50.051 14.444 61.696 15.93 67.278 C 16.748 70.357 19.158 72.681 22.217 73.504 C 27.763 75 50 75 50 75 C 50 75 72.237 75 77.783 73.504 C 80.842 72.681 83.252 70.357 84.07 67.278 C 85.556 61.696 85.556 50.051 85.556 50.051 C 85.556 50.051 85.556 38.405 84.07 32.823 L 84.07 32.823 Z  M 42.727 60.624 L 42.727 39.477 L 61.313 50.051 L 42.727 60.624 L 42.727 60.624 Z " fill="rgb(255,0,0)"/></g></svg>